<svg xmlns="http://www.w3.org/2000/svg" xmlns:xlink="http://www.w3.org/1999/xlink" width="500" zoomAndPan="magnify" viewBox="0 0 375 374.999991" height="500" preserveAspectRatio="xMidYMid meet" version="1.2"><defs><clipPath id="205a4edfd6"><path d="M 46.828125 124.335938 L 159.546875 124.335938 L 159.546875 208.710938 L 46.828125 208.710938 Z M 46.828125 124.335938 "/></clipPath><clipPath id="69a6b9aa27"><path d="M 74.953125 124.335938 L 159.328125 124.335938 L 131.203125 208.710938 L 46.828125 208.710938 Z M 74.953125 124.335938 "/></clipPath><clipPath id="006c99c89e"><path d="M 0.828125 0.335938 L 113.359375 0.335938 L 113.359375 84.710938 L 0.828125 84.710938 Z M 0.828125 0.335938 "/></clipPath><clipPath id="637ecda2b3"><path d="M 28.953125 0.335938 L 113.328125 0.335938 L 85.203125 84.710938 L 0.828125 84.710938 Z M 28.953125 0.335938 "/></clipPath><clipPath id="26ef0c0cd9"><rect x="0" width="114" y="0" height="85"/></clipPath><clipPath id="cef206d90b"><path d="M 131.183594 124.335938 L 243.90625 124.335938 L 243.90625 208.710938 L 131.183594 208.710938 Z M 131.183594 124.335938 "/></clipPath><clipPath id="a9d4ba694e"><path d="M 159.308594 124.335938 L 243.683594 124.335938 L 215.558594 208.710938 L 131.183594 208.710938 Z M 159.308594 124.335938 "/></clipPath><clipPath id="574126c6ed"><path d="M 0.183594 0.335938 L 112.839844 0.335938 L 112.839844 84.710938 L 0.183594 84.710938 Z M 0.183594 0.335938 "/></clipPath><clipPath id="8cf761d413"><path d="M 28.308594 0.335938 L 112.683594 0.335938 L 84.558594 84.710938 L 0.183594 84.710938 Z M 28.308594 0.335938 "/></clipPath><clipPath id="b5d7d5e784"><rect x="0" width="113" y="0" height="85"/></clipPath><clipPath id="297b763af1"><path d="M 215.671875 124.335938 L 328.390625 124.335938 L 328.390625 208.710938 L 215.671875 208.710938 Z M 215.671875 124.335938 "/></clipPath><clipPath id="a3f903d89e"><path d="M 243.796875 124.335938 L 328.171875 124.335938 L 300.046875 208.710938 L 215.671875 208.710938 Z M 243.796875 124.335938 "/></clipPath><clipPath id="f55d06c2bb"><path d="M 0.671875 0.335938 L 113.320312 0.335938 L 113.320312 84.710938 L 0.671875 84.710938 Z M 0.671875 0.335938 "/></clipPath><clipPath id="3571db9bb4"><path d="M 28.796875 0.335938 L 113.171875 0.335938 L 85.046875 84.710938 L 0.671875 84.710938 Z M 28.796875 0.335938 "/></clipPath><clipPath id="eafc184b1c"><rect x="0" width="114" y="0" height="85"/></clipPath></defs><g id="871f81e279"><g clip-rule="nonzero" clip-path="url(#205a4edfd6)"><g clip-rule="nonzero" clip-path="url(#69a6b9aa27)"><g transform="matrix(1,0,0,1,46,124)"><g clip-path="url(#26ef0c0cd9)"><g clip-rule="nonzero" clip-path="url(#006c99c89e)"><g clip-rule="nonzero" clip-path="url(#637ecda2b3)"><path style=" stroke:none;fill-rule:nonzero;fill:#8f8f8f;fill-opacity:1;" d="M 0.828125 0.335938 L 113.21875 0.335938 L 113.21875 84.710938 L 0.828125 84.710938 Z M 0.828125 0.335938 "/></g></g></g></g></g></g><g style="fill:#ffffff;fill-opacity:1;"><g transform="translate(81.592396, 181.898866)"><path style="stroke:none" d="M 32.40625 0 L 32.359375 -18.90625 L 23.078125 -3.328125 L 19.796875 -3.328125 L 10.578125 -18.5 L 10.578125 0 L 3.734375 0 L 3.734375 -31.5 L 9.765625 -31.5 L 21.5625 -11.921875 L 33.171875 -31.5 L 39.15625 -31.5 L 39.234375 0 Z M 32.40625 0 "/></g></g><g clip-rule="nonzero" clip-path="url(#cef206d90b)"><g clip-rule="nonzero" clip-path="url(#a9d4ba694e)"><g transform="matrix(1,0,0,1,131,124)"><g clip-path="url(#b5d7d5e784)"><g clip-rule="nonzero" clip-path="url(#574126c6ed)"><g clip-rule="nonzero" clip-path="url(#8cf761d413)"><path style=" stroke:none;fill-rule:nonzero;fill:#ffffff;fill-opacity:1;" d="M 0.183594 0.335938 L 112.574219 0.335938 L 112.574219 84.710938 L 0.183594 84.710938 Z M 0.183594 0.335938 "/></g></g></g></g></g></g><g style="fill:#000000;fill-opacity:1;"><g transform="translate(161.266972, 181.898866)"><path style="stroke:none" d="M 51.34375 -31.5 L 41.046875 0 L 33.203125 0 L 26.28125 -21.328125 L 19.125 0 L 11.34375 0 L 0.984375 -31.5 L 8.546875 -31.5 L 15.65625 -9.359375 L 23.078125 -31.5 L 29.828125 -31.5 L 37.03125 -9.1875 L 44.375 -31.5 Z M 51.34375 -31.5 "/></g></g><g clip-rule="nonzero" clip-path="url(#297b763af1)"><g clip-rule="nonzero" clip-path="url(#a3f903d89e)"><g transform="matrix(1,0,0,1,215,124)"><g clip-path="url(#eafc184b1c)"><g clip-rule="nonzero" clip-path="url(#f55d06c2bb)"><g clip-rule="nonzero" clip-path="url(#3571db9bb4)"><path style=" stroke:none;fill-rule:nonzero;fill:#44903c;fill-opacity:1;" d="M 0.671875 0.335938 L 113.0625 0.335938 L 113.0625 84.710938 L 0.671875 84.710938 Z M 0.671875 0.335938 "/></g></g></g></g></g></g><g style="fill:#ffffff;fill-opacity:1;"><g transform="translate(254.685926, 181.898866)"><path style="stroke:none" d="M 24.484375 -6.75 L 9.859375 -6.75 L 7.0625 0 L -0.40625 0 L 13.640625 -31.5 L 20.828125 -31.5 L 34.921875 0 L 27.265625 0 Z M 22.1875 -12.28125 L 17.1875 -24.34375 L 12.1875 -12.28125 Z M 22.1875 -12.28125 "/></g></g><g style="fill:#ffffff;fill-opacity:1;"><g transform="translate(119.613277, 244.613626)"><path style="stroke:none" d="M 15.84375 0 L 15.8125 -9.234375 L 11.28125 -1.625 L 9.6875 -1.625 L 5.171875 -9.046875 L 5.171875 0 L 1.828125 0 L 1.828125 -15.40625 L 4.78125 -15.40625 L 10.53125 -5.828125 L 16.21875 -15.40625 L 19.140625 -15.40625 L 19.1875 0 Z M 15.84375 0 "/></g></g><g style="fill:#ffffff;fill-opacity:1;"><g transform="translate(140.531543, 244.613626)"><path style="stroke:none" d="M 25.109375 -15.40625 L 20.0625 0 L 16.234375 0 L 12.84375 -10.421875 L 9.34375 0 L 5.546875 0 L 0.484375 -15.40625 L 4.1875 -15.40625 L 7.65625 -4.578125 L 11.28125 -15.40625 L 14.59375 -15.40625 L 18.109375 -4.484375 L 21.6875 -15.40625 Z M 25.109375 -15.40625 "/></g></g><g style="fill:#ffffff;fill-opacity:1;"><g transform="translate(165.277089, 244.613626)"><path style="stroke:none" d="M 11.96875 -3.296875 L 4.8125 -3.296875 L 3.453125 0 L -0.203125 0 L 6.671875 -15.40625 L 10.1875 -15.40625 L 17.078125 0 L 13.328125 0 Z M 10.84375 -6 L 8.40625 -11.90625 L 5.96875 -6 Z M 10.84375 -6 "/></g></g><g style="fill:#ffffff;fill-opacity:1;"><g transform="translate(182.126087, 244.613626)"><path style="stroke:none" d=""/></g></g><g style="fill:#ffffff;fill-opacity:1;"><g transform="translate(188.350974, 244.613626)"><path style="stroke:none" d="M 11.96875 -3.296875 L 4.8125 -3.296875 L 3.453125 0 L -0.203125 0 L 6.671875 -15.40625 L 10.1875 -15.40625 L 17.078125 0 L 13.328125 0 Z M 10.84375 -6 L 8.40625 -11.90625 L 5.96875 -6 Z M 10.84375 -6 "/></g></g><g style="fill:#ffffff;fill-opacity:1;"><g transform="translate(204.979994, 244.613626)"><path style="stroke:none" d="M 13.515625 -11.84375 L 13.515625 0 L 10.25 0 L 10.25 -1.40625 C 9.789062 -0.894531 9.242188 -0.503906 8.609375 -0.234375 C 7.984375 0.0351562 7.304688 0.171875 6.578125 0.171875 C 5.023438 0.171875 3.789062 -0.273438 2.875 -1.171875 C 1.96875 -2.066406 1.515625 -3.390625 1.515625 -5.140625 L 1.515625 -11.84375 L 4.953125 -11.84375 L 4.953125 -5.65625 C 4.953125 -3.75 5.75 -2.796875 7.34375 -2.796875 C 8.164062 -2.796875 8.828125 -3.0625 9.328125 -3.59375 C 9.828125 -4.132812 10.078125 -4.929688 10.078125 -5.984375 L 10.078125 -11.84375 Z M 13.515625 -11.84375 "/></g></g><g style="fill:#ffffff;fill-opacity:1;"><g transform="translate(220.091298, 244.613626)"><path style="stroke:none" d="M 9.21875 -0.578125 C 8.882812 -0.328125 8.46875 -0.140625 7.96875 -0.015625 C 7.476562 0.109375 6.960938 0.171875 6.421875 0.171875 C 5.015625 0.171875 3.925781 -0.1875 3.15625 -0.90625 C 2.382812 -1.625 2 -2.675781 2 -4.0625 L 2 -8.9375 L 0.171875 -8.9375 L 0.171875 -11.578125 L 2 -11.578125 L 2 -14.453125 L 5.4375 -14.453125 L 5.4375 -11.578125 L 8.375 -11.578125 L 8.375 -8.9375 L 5.4375 -8.9375 L 5.4375 -4.109375 C 5.4375 -3.609375 5.5625 -3.222656 5.8125 -2.953125 C 6.070312 -2.679688 6.4375 -2.546875 6.90625 -2.546875 C 7.445312 -2.546875 7.910156 -2.691406 8.296875 -2.984375 Z M 9.21875 -0.578125 "/></g></g><g style="fill:#ffffff;fill-opacity:1;"><g transform="translate(229.28563, 244.613626)"><path style="stroke:none" d="M 7.21875 0.171875 C 5.96875 0.171875 4.847656 -0.0859375 3.859375 -0.609375 C 2.867188 -1.128906 2.09375 -1.847656 1.53125 -2.765625 C 0.976562 -3.691406 0.703125 -4.742188 0.703125 -5.921875 C 0.703125 -7.085938 0.976562 -8.132812 1.53125 -9.0625 C 2.09375 -9.988281 2.867188 -10.710938 3.859375 -11.234375 C 4.847656 -11.753906 5.96875 -12.015625 7.21875 -12.015625 C 8.46875 -12.015625 9.582031 -11.753906 10.5625 -11.234375 C 11.539062 -10.710938 12.304688 -9.988281 12.859375 -9.0625 C 13.421875 -8.132812 13.703125 -7.085938 13.703125 -5.921875 C 13.703125 -4.742188 13.421875 -3.691406 12.859375 -2.765625 C 12.304688 -1.847656 11.539062 -1.128906 10.5625 -0.609375 C 9.582031 -0.0859375 8.46875 0.171875 7.21875 0.171875 Z M 7.21875 -2.640625 C 8.09375 -2.640625 8.8125 -2.9375 9.375 -3.53125 C 9.945312 -4.125 10.234375 -4.921875 10.234375 -5.921875 C 10.234375 -6.910156 9.945312 -7.703125 9.375 -8.296875 C 8.8125 -8.898438 8.09375 -9.203125 7.21875 -9.203125 C 6.332031 -9.203125 5.601562 -8.898438 5.03125 -8.296875 C 4.46875 -7.703125 4.1875 -6.910156 4.1875 -5.921875 C 4.1875 -4.921875 4.46875 -4.125 5.03125 -3.53125 C 5.601562 -2.9375 6.332031 -2.640625 7.21875 -2.640625 Z M 7.21875 -2.640625 "/></g></g><g style="fill:#ffffff;fill-opacity:1;"><g transform="translate(243.693065, 244.613626)"><path style="stroke:none" d="M 5.5625 0.171875 C 4.582031 0.171875 3.625 0.0507812 2.6875 -0.1875 C 1.75 -0.425781 1 -0.726562 0.4375 -1.09375 L 1.578125 -3.5625 C 2.109375 -3.226562 2.75 -2.953125 3.5 -2.734375 C 4.25 -2.523438 4.984375 -2.421875 5.703125 -2.421875 C 7.148438 -2.421875 7.875 -2.78125 7.875 -3.5 C 7.875 -3.832031 7.675781 -4.070312 7.28125 -4.21875 C 6.882812 -4.363281 6.273438 -4.488281 5.453125 -4.59375 C 4.484375 -4.738281 3.679688 -4.90625 3.046875 -5.09375 C 2.421875 -5.289062 1.875 -5.628906 1.40625 -6.109375 C 0.945312 -6.597656 0.71875 -7.289062 0.71875 -8.1875 C 0.71875 -8.9375 0.9375 -9.597656 1.375 -10.171875 C 1.8125 -10.753906 2.441406 -11.207031 3.265625 -11.53125 C 4.097656 -11.851562 5.078125 -12.015625 6.203125 -12.015625 C 7.035156 -12.015625 7.863281 -11.921875 8.6875 -11.734375 C 9.519531 -11.554688 10.210938 -11.304688 10.765625 -10.984375 L 9.609375 -8.53125 C 8.566406 -9.125 7.429688 -9.421875 6.203125 -9.421875 C 5.472656 -9.421875 4.921875 -9.316406 4.546875 -9.109375 C 4.179688 -8.898438 4 -8.632812 4 -8.3125 C 4 -7.945312 4.195312 -7.691406 4.59375 -7.546875 C 4.988281 -7.398438 5.617188 -7.257812 6.484375 -7.125 C 7.453125 -6.96875 8.242188 -6.796875 8.859375 -6.609375 C 9.484375 -6.429688 10.019531 -6.097656 10.46875 -5.609375 C 10.925781 -5.128906 11.15625 -4.457031 11.15625 -3.59375 C 11.15625 -2.851562 10.929688 -2.195312 10.484375 -1.625 C 10.046875 -1.050781 9.40625 -0.609375 8.5625 -0.296875 C 7.71875 0.015625 6.71875 0.171875 5.5625 0.171875 Z M 5.5625 0.171875 "/></g></g></g></svg>